{
	"asset":{
		"generator":"Khronos glTF Blender I/O v4.4.56",
		"version":"2.0"
	},
	"extensionsUsed":[
		"KHR_materials_specular",
		"KHR_materials_ior"
	],
	"scene":0,
	"scenes":[
		{
			"name":"Scene",
			"nodes":[
				5
			]
		}
	],
	"nodes":[
		{
			"mesh":0,
			"name":"Cube.001_0"
		},
		{
			"mesh":1,
			"name":"Cube.001_1"
		},
		{
			"mesh":2,
			"name":"Cube.001_2"
		},
		{
			"children":[
				0,
				1,
				2
			],
			"name":"Cube.001"
		},
		{
			"children":[
				3
			],
			"name":"Root"
		},
		{
			"children":[
				4
			],
			"name":"Sketchfab_model"
		}
	],
	"materials":[
		{
			"alphaMode":"BLEND",
			"doubleSided":true,
			"emissiveFactor":[
				1,
				1,
				1
			],
			"emissiveTexture":{
				"index":0
			},
			"name":"GlassAbsorption.02",
			"pbrMetallicRoughness":{
				"baseColorFactor":[
					1,
					1,
					1,
					0.08974847197532654
				],
				"baseColorTexture":{
					"index":1
				},
				"metallicFactor":0,
				"roughnessFactor":0.6000000238418579
			}
		},
		{
			"doubleSided":true,
			"emissiveFactor":[
				1,
				1,
				1
			],
			"emissiveTexture":{
				"index":2
			},
			"extensions":{
				"KHR_materials_specular":{
					"specularColorFactor":[
						0.0,
						0.0,
						0.0
					]
				},
				"KHR_materials_ior":{
					"ior":1000
				}
			},
			"name":"Bronze",
			"pbrMetallicRoughness":{
				"baseColorTexture":{
					"index":3
				},
				"metallicFactor":0,
				"roughnessFactor":0.6000000238418579
			}
		},
		{
			"doubleSided":true,
			"emissiveFactor":[
				1,
				1,
				1
			],
			"emissiveTexture":{
				"index":4
			},
			"extensions":{
				"KHR_materials_specular":{
					"specularColorFactor":[
						0.0,
						0.0,
						0.0
					]
				},
				"KHR_materials_ior":{
					"ior":1000
				}
			},
			"name":"Grunge",
			"pbrMetallicRoughness":{
				"baseColorTexture":{
					"index":5
				},
				"metallicFactor":0,
				"roughnessFactor":0.20000000298023224
			}
		}
	],
	"meshes":[
		{
			"name":"Cube.001_0",
			"primitives":[
				{
					"attributes":{
						"POSITION":0,
						"NORMAL":1,
						"TEXCOORD_0":2
					},
					"indices":3,
					"material":0
				}
			]
		},
		{
			"name":"Cube.001_1",
			"primitives":[
				{
					"attributes":{
						"POSITION":4,
						"NORMAL":5,
						"TEXCOORD_0":6
					},
					"indices":7,
					"material":1
				}
			]
		},
		{
			"name":"Cube.001_2",
			"primitives":[
				{
					"attributes":{
						"POSITION":8,
						"NORMAL":9,
						"TEXCOORD_0":10
					},
					"indices":11,
					"material":2
				}
			]
		}
	],
	"textures":[
		{
			"sampler":0,
			"source":0
		},
		{
			"sampler":0,
			"source":0
		},
		{
			"sampler":0,
			"source":0
		},
		{
			"sampler":0,
			"source":0
		},
		{
			"sampler":0,
			"source":0
		},
		{
			"sampler":0,
			"source":0
		}
	],
	"images":[
		{
			"mimeType":"image/png",
			"name":"GlassAbsorption.02_diffuse",
			"uri":"GlassAbsorption_02_diffuse.png"
		}
	],
	"accessors":[
		{
			"bufferView":0,
			"componentType":5126,
			"count":24,
			"max":[
				18.76409912109375,
				0.04148000106215477,
				9.153559684753418
			],
			"min":[
				0.5786100029945374,
				-0.04148000106215477,
				-1.018239974975586
			],
			"type":"VEC3"
		},
		{
			"bufferView":1,
			"componentType":5126,
			"count":24,
			"type":"VEC3"
		},
		{
			"bufferView":2,
			"componentType":5126,
			"count":24,
			"type":"VEC2"
		},
		{
			"bufferView":3,
			"componentType":5123,
			"count":36,
			"type":"SCALAR"
		},
		{
			"bufferView":4,
			"componentType":5126,
			"count":56308,
			"max":[
				18.640260696411133,
				0.12639999389648438,
				9.190540313720703
			],
			"min":[
				-0.4215399920940399,
				-0.15770000219345093,
				-0.7864300012588501
			],
			"type":"VEC3"
		},
		{
			"bufferView":5,
			"componentType":5126,
			"count":56308,
			"type":"VEC3"
		},
		{
			"bufferView":6,
			"componentType":5126,
			"count":56308,
			"type":"VEC2"
		},
		{
			"bufferView":7,
			"componentType":5123,
			"count":72192,
			"type":"SCALAR"
		},
		{
			"bufferView":8,
			"componentType":5126,
			"count":540,
			"max":[
				20.89621925354004,
				1.5032399892807007,
				9.585350036621094
			],
			"min":[
				-2.1334500312805176,
				-1.4015100002288818,
				-2.005120038986206
			],
			"type":"VEC3"
		},
		{
			"bufferView":9,
			"componentType":5126,
			"count":540,
			"type":"VEC3"
		},
		{
			"bufferView":10,
			"componentType":5126,
			"count":540,
			"type":"VEC2"
		},
		{
			"bufferView":11,
			"componentType":5123,
			"count":810,
			"type":"SCALAR"
		}
	],
	"bufferViews":[
		{
			"buffer":0,
			"byteLength":288,
			"byteOffset":0,
			"target":34962
		},
		{
			"buffer":0,
			"byteLength":288,
			"byteOffset":288,
			"target":34962
		},
		{
			"buffer":0,
			"byteLength":192,
			"byteOffset":576,
			"target":34962
		},
		{
			"buffer":0,
			"byteLength":72,
			"byteOffset":768,
			"target":34963
		},
		{
			"buffer":0,
			"byteLength":675696,
			"byteOffset":840,
			"target":34962
		},
		{
			"buffer":0,
			"byteLength":675696,
			"byteOffset":676536,
			"target":34962
		},
		{
			"buffer":0,
			"byteLength":450464,
			"byteOffset":1352232,
			"target":34962
		},
		{
			"buffer":0,
			"byteLength":144384,
			"byteOffset":1802696,
			"target":34963
		},
		{
			"buffer":0,
			"byteLength":6480,
			"byteOffset":1947080,
			"target":34962
		},
		{
			"buffer":0,
			"byteLength":6480,
			"byteOffset":1953560,
			"target":34962
		},
		{
			"buffer":0,
			"byteLength":4320,
			"byteOffset":1960040,
			"target":34962
		},
		{
			"buffer":0,
			"byteLength":1620,
			"byteOffset":1964360,
			"target":34963
		}
	],
	"samplers":[
		{
			"magFilter":9729,
			"minFilter":9987
		}
	],
	"buffers":[
		{
			"byteLength":1965980,
			"uri":"wall.bin"
		}
	]
}
