# Blender 4.4.1
# www.blender.org
mtllib head.mtl
o head
v 0.500000 1.410000 -0.500000
v 0.500000 2.010000 -0.500000
v 0.500000 1.410000 0.500000
v 0.500000 2.010000 0.500000
v -0.500000 1.410000 -0.500000
v -0.500000 2.010000 -0.500000
v -0.500000 1.410000 0.500000
v -0.500000 2.010000 0.500000
v 0.000000 1.010000 0.500000
v 0.000000 2.010000 0.500000
v 0.000000 1.010000 -0.500000
v 0.000000 2.010000 -0.500000
vn 1.0000 -0.0000 -0.0000
vn -0.0000 -0.0000 1.0000
vn -1.0000 -0.0000 -0.0000
vn -0.0000 -0.0000 -1.0000
vn -0.6247 -0.7809 -0.0000
vn -0.0000 1.0000 -0.0000
vn 0.6247 -0.7809 -0.0000
vt 0.519121 0.503620
vt 0.691242 0.568134
vt 0.519121 0.568134
vt 0.018385 0.670129
vt 0.111814 0.592271
vt 0.174100 0.670129
vt 0.221208 0.692532
vt 0.325260 0.519113
vt 0.325260 0.692532
vt 0.700600 0.349010
vt 0.794029 0.271153
vt 0.856315 0.349010
vt 0.394627 0.519113
vt 0.394627 0.692532
vt 0.684794 0.869211
vt 0.529079 0.791354
vt 0.684794 0.791354
vt 0.529079 0.713496
vt 0.684794 0.713496
vt 0.691242 0.678346
vt 0.794029 0.426868
vt 0.111814 0.747986
vt 0.691242 0.503620
vt 0.018385 0.592271
vt 0.221208 0.519113
vt 0.700600 0.271153
vt 0.529079 0.869211
vt 0.519121 0.678346
vt 0.700600 0.426868
vt 0.018385 0.747986
s 1
usemtl player.001
f 2/1/1 3/2/1 1/3/1
f 10/4/2 7/5/2 9/6/2
f 8/7/3 5/8/3 7/9/3
f 12/10/4 1/11/4 11/12/4
f 7/9/5 11/13/5 9/14/5
f 4/15/6 12/16/6 10/17/6
f 10/17/6 6/18/6 8/19/6
f 9/20/7 1/3/7 3/2/7
f 5/21/4 12/10/4 11/12/4
f 3/22/2 10/4/2 9/6/2
f 2/1/1 4/23/1 3/2/1
f 10/4/2 8/24/2 7/5/2
f 8/7/3 6/25/3 5/8/3
f 12/10/4 2/26/4 1/11/4
f 7/9/5 5/8/5 11/13/5
f 4/15/6 2/27/6 12/16/6
f 10/17/6 12/16/6 6/18/6
f 9/20/7 11/28/7 1/3/7
f 5/21/4 6/29/4 12/10/4
f 3/22/2 4/30/2 10/4/2
