{
	"asset":{
		"generator":"Khronos glTF Blender I/O v4.4.56",
		"version":"2.0"
	},
	"extensionsUsed":[
		"KHR_materials_unlit"
	],
	"scene":0,
	"scenes":[
		{
			"name":"Scene",
			"nodes":[
				14
			]
		}
	],
	"nodes":[
		{
			"mesh":0,
			"name":"Object_10"
		},
		{
			"mesh":1,
			"name":"Object_11"
		},
		{
			"mesh":2,
			"name":"Object_12"
		},
		{
			"mesh":3,
			"name":"Object_13"
		},
		{
			"mesh":4,
			"name":"Object_14"
		},
		{
			"mesh":5,
			"name":"Object_4"
		},
		{
			"mesh":6,
			"name":"Object_5"
		},
		{
			"mesh":7,
			"name":"Object_6"
		},
		{
			"mesh":8,
			"name":"Object_7"
		},
		{
			"mesh":9,
			"name":"Object_8"
		},
		{
			"mesh":10,
			"name":"Object_9"
		},
		{
			"children":[
				0,
				1,
				2,
				3,
				4,
				5,
				6,
				7,
				8,
				9,
				10
			],
			"name":"_0"
		},
		{
			"children":[
				11
			],
			"name":"GLTF_SceneRootNode",
			"rotation":[
				0.70710688829422,
				0,
				0,
				0.7071066498756409
			]
		},
		{
			"children":[
				12
			],
			"name":"root"
		},
		{
			"children":[
				13
			],
			"name":"Sketchfab_model",
			"rotation":[
				-0.70710688829422,
				0,
				0,
				0.7071066498756409
			]
		}
	],
	"materials":[
		{
			"doubleSided":true,
			"extensions":{
				"KHR_materials_unlit":{}
			},
			"name":"material_0",
			"pbrMetallicRoughness":{
				"baseColorTexture":{
					"index":0
				},
				"metallicFactor":0,
				"roughnessFactor":0.9
			}
		}
	],
	"meshes":[
		{
			"name":"Object_6",
			"primitives":[
				{
					"attributes":{
						"POSITION":0,
						"NORMAL":1,
						"TEXCOORD_0":2,
						"TEXCOORD_1":3,
						"TEXCOORD_2":4,
						"TEXCOORD_3":5
					},
					"indices":6,
					"material":0
				}
			]
		},
		{
			"name":"Object_7",
			"primitives":[
				{
					"attributes":{
						"POSITION":7,
						"NORMAL":8,
						"TEXCOORD_0":9,
						"TEXCOORD_1":10,
						"TEXCOORD_2":11,
						"TEXCOORD_3":12
					},
					"indices":13,
					"material":0
				}
			]
		},
		{
			"name":"Object_8",
			"primitives":[
				{
					"attributes":{
						"POSITION":14,
						"NORMAL":15,
						"TEXCOORD_0":16,
						"TEXCOORD_1":17,
						"TEXCOORD_2":18,
						"TEXCOORD_3":19
					},
					"indices":20,
					"material":0
				}
			]
		},
		{
			"name":"Object_9",
			"primitives":[
				{
					"attributes":{
						"POSITION":21,
						"NORMAL":22,
						"TEXCOORD_0":23,
						"TEXCOORD_1":24,
						"TEXCOORD_2":25,
						"TEXCOORD_3":26
					},
					"indices":27,
					"material":0
				}
			]
		},
		{
			"name":"Object_10",
			"primitives":[
				{
					"attributes":{
						"POSITION":28,
						"NORMAL":29,
						"TEXCOORD_0":30,
						"TEXCOORD_1":31,
						"TEXCOORD_2":32,
						"TEXCOORD_3":33
					},
					"indices":34,
					"material":0
				}
			]
		},
		{
			"name":"Object_0",
			"primitives":[
				{
					"attributes":{
						"POSITION":35,
						"NORMAL":36,
						"TEXCOORD_0":37,
						"TEXCOORD_1":38,
						"TEXCOORD_2":39,
						"TEXCOORD_3":40
					},
					"indices":41,
					"material":0
				}
			]
		},
		{
			"name":"Object_1",
			"primitives":[
				{
					"attributes":{
						"POSITION":42,
						"NORMAL":43,
						"TEXCOORD_0":44,
						"TEXCOORD_1":45,
						"TEXCOORD_2":46,
						"TEXCOORD_3":47
					},
					"indices":48,
					"material":0
				}
			]
		},
		{
			"name":"Object_2",
			"primitives":[
				{
					"attributes":{
						"POSITION":49,
						"NORMAL":50,
						"TEXCOORD_0":51,
						"TEXCOORD_1":52,
						"TEXCOORD_2":53,
						"TEXCOORD_3":54
					},
					"indices":55,
					"material":0
				}
			]
		},
		{
			"name":"Object_3",
			"primitives":[
				{
					"attributes":{
						"POSITION":56,
						"NORMAL":57,
						"TEXCOORD_0":58,
						"TEXCOORD_1":59,
						"TEXCOORD_2":60,
						"TEXCOORD_3":61
					},
					"indices":62,
					"material":0
				}
			]
		},
		{
			"name":"Object_4",
			"primitives":[
				{
					"attributes":{
						"POSITION":63,
						"NORMAL":64,
						"TEXCOORD_0":65,
						"TEXCOORD_1":66,
						"TEXCOORD_2":67,
						"TEXCOORD_3":68
					},
					"indices":69,
					"material":0
				}
			]
		},
		{
			"name":"Object_5",
			"primitives":[
				{
					"attributes":{
						"POSITION":70,
						"NORMAL":71,
						"TEXCOORD_0":72,
						"TEXCOORD_1":73,
						"TEXCOORD_2":74,
						"TEXCOORD_3":75
					},
					"indices":76,
					"material":0
				}
			]
		}
	],
	"textures":[
		{
			"sampler":0,
			"source":0
		}
	],
	"images":[
		{
			"mimeType":"image/jpeg",
			"name":"angel_statue_baseColor",
			"uri":"angel_statue_baseColor.jpg"
		}
	],
	"accessors":[
		{
			"bufferView":0,
			"componentType":5126,
			"count":65631,
			"max":[
				0.6632930040359497,
				0.8493660092353821,
				0.3234579861164093
			],
			"min":[
				-0.6687800288200378,
				-0.9519749879837036,
				-0.2759220004081726
			],
			"type":"VEC3"
		},
		{
			"bufferView":1,
			"componentType":5126,
			"count":65631,
			"type":"VEC3"
		},
		{
			"bufferView":2,
			"componentType":5126,
			"count":65631,
			"type":"VEC2"
		},
		{
			"bufferView":3,
			"componentType":5126,
			"count":65631,
			"type":"VEC2"
		},
		{
			"bufferView":4,
			"componentType":5126,
			"count":65631,
			"type":"VEC2"
		},
		{
			"bufferView":5,
			"componentType":5126,
			"count":65631,
			"type":"VEC2"
		},
		{
			"bufferView":6,
			"componentType":5125,
			"count":320088,
			"type":"SCALAR"
		},
		{
			"bufferView":7,
			"componentType":5126,
			"count":65678,
			"max":[
				0.7400810122489929,
				0.8456950187683105,
				0.07226599752902985
			],
			"min":[
				-0.7240599989891052,
				-0.9519519805908203,
				-0.3001610040664673
			],
			"type":"VEC3"
		},
		{
			"bufferView":8,
			"componentType":5126,
			"count":65678,
			"type":"VEC3"
		},
		{
			"bufferView":9,
			"componentType":5126,
			"count":65678,
			"type":"VEC2"
		},
		{
			"bufferView":10,
			"componentType":5126,
			"count":65678,
			"type":"VEC2"
		},
		{
			"bufferView":11,
			"componentType":5126,
			"count":65678,
			"type":"VEC2"
		},
		{
			"bufferView":12,
			"componentType":5126,
			"count":65678,
			"type":"VEC2"
		},
		{
			"bufferView":13,
			"componentType":5125,
			"count":293055,
			"type":"SCALAR"
		},
		{
			"bufferView":14,
			"componentType":5126,
			"count":65737,
			"max":[
				0.7154170274734497,
				0.8730850219726562,
				0.041377000510692596
			],
			"min":[
				-0.6981160044670105,
				-0.9518880248069763,
				-0.3345380127429962
			],
			"type":"VEC3"
		},
		{
			"bufferView":15,
			"componentType":5126,
			"count":65737,
			"type":"VEC3"
		},
		{
			"bufferView":16,
			"componentType":5126,
			"count":65737,
			"type":"VEC2"
		},
		{
			"bufferView":17,
			"componentType":5126,
			"count":65737,
			"type":"VEC2"
		},
		{
			"bufferView":18,
			"componentType":5126,
			"count":65737,
			"type":"VEC2"
		},
		{
			"bufferView":19,
			"componentType":5126,
			"count":65737,
			"type":"VEC2"
		},
		{
			"bufferView":20,
			"componentType":5125,
			"count":273126,
			"type":"SCALAR"
		},
		{
			"bufferView":21,
			"componentType":5126,
			"count":65676,
			"max":[
				0.682325005531311,
				0.9482750296592712,
				0.16742800176143646
			],
			"min":[
				-0.684715986251831,
				-0.951865017414093,
				-0.08192700147628784
			],
			"type":"VEC3"
		},
		{
			"bufferView":22,
			"componentType":5126,
			"count":65676,
			"type":"VEC3"
		},
		{
			"bufferView":23,
			"componentType":5126,
			"count":65676,
			"type":"VEC2"
		},
		{
			"bufferView":24,
			"componentType":5126,
			"count":65676,
			"type":"VEC2"
		},
		{
			"bufferView":25,
			"componentType":5126,
			"count":65676,
			"type":"VEC2"
		},
		{
			"bufferView":26,
			"componentType":5126,
			"count":65676,
			"type":"VEC2"
		},
		{
			"bufferView":27,
			"componentType":5125,
			"count":283161,
			"type":"SCALAR"
		},
		{
			"bufferView":28,
			"componentType":5126,
			"count":21496,
			"max":[
				0.4296880066394806,
				0.951708972454071,
				0.20898400247097015
			],
			"min":[
				-0.4266670048236847,
				-0.9517040252685547,
				0.06762699782848358
			],
			"type":"VEC3"
		},
		{
			"bufferView":29,
			"componentType":5126,
			"count":21496,
			"type":"VEC3"
		},
		{
			"bufferView":30,
			"componentType":5126,
			"count":21496,
			"type":"VEC2"
		},
		{
			"bufferView":31,
			"componentType":5126,
			"count":21496,
			"type":"VEC2"
		},
		{
			"bufferView":32,
			"componentType":5126,
			"count":21496,
			"type":"VEC2"
		},
		{
			"bufferView":33,
			"componentType":5126,
			"count":21496,
			"type":"VEC2"
		},
		{
			"bufferView":34,
			"componentType":5123,
			"count":84978,
			"type":"SCALAR"
		},
		{
			"bufferView":35,
			"componentType":5126,
			"count":65582,
			"max":[
				0.6233839988708496,
				0.9490780234336853,
				0.2979249954223633
			],
			"min":[
				-0.6743190288543701,
				-0.9518880248069763,
				-0.29097598791122437
			],
			"type":"VEC3"
		},
		{
			"bufferView":36,
			"componentType":5126,
			"count":65582,
			"type":"VEC3"
		},
		{
			"bufferView":37,
			"componentType":5126,
			"count":65582,
			"type":"VEC2"
		},
		{
			"bufferView":38,
			"componentType":5126,
			"count":65582,
			"type":"VEC2"
		},
		{
			"bufferView":39,
			"componentType":5126,
			"count":65582,
			"type":"VEC2"
		},
		{
			"bufferView":40,
			"componentType":5126,
			"count":65582,
			"type":"VEC2"
		},
		{
			"bufferView":41,
			"componentType":5125,
			"count":339009,
			"type":"SCALAR"
		},
		{
			"bufferView":42,
			"componentType":5126,
			"count":65577,
			"max":[
				0.7488229870796204,
				0.9474989771842957,
				0.23933300375938416
			],
			"min":[
				-0.671875,
				-0.9519339799880981,
				-0.3345380127429962
			],
			"type":"VEC3"
		},
		{
			"bufferView":43,
			"componentType":5126,
			"count":65577,
			"type":"VEC3"
		},
		{
			"bufferView":44,
			"componentType":5126,
			"count":65577,
			"type":"VEC2"
		},
		{
			"bufferView":45,
			"componentType":5126,
			"count":65577,
			"type":"VEC2"
		},
		{
			"bufferView":46,
			"componentType":5126,
			"count":65577,
			"type":"VEC2"
		},
		{
			"bufferView":47,
			"componentType":5126,
			"count":65577,
			"type":"VEC2"
		},
		{
			"bufferView":48,
			"componentType":5125,
			"count":341373,
			"type":"SCALAR"
		},
		{
			"bufferView":49,
			"componentType":5126,
			"count":65589,
			"max":[
				0.667585015296936,
				0.9471309781074524,
				0.26860201358795166
			],
			"min":[
				-0.6793220043182373,
				-0.9519519805908203,
				-0.3326900005340576
			],
			"type":"VEC3"
		},
		{
			"bufferView":50,
			"componentType":5126,
			"count":65589,
			"type":"VEC3"
		},
		{
			"bufferView":51,
			"componentType":5126,
			"count":65589,
			"type":"VEC2"
		},
		{
			"bufferView":52,
			"componentType":5126,
			"count":65589,
			"type":"VEC2"
		},
		{
			"bufferView":53,
			"componentType":5126,
			"count":65589,
			"type":"VEC2"
		},
		{
			"bufferView":54,
			"componentType":5126,
			"count":65589,
			"type":"VEC2"
		},
		{
			"bufferView":55,
			"componentType":5125,
			"count":341217,
			"type":"SCALAR"
		},
		{
			"bufferView":56,
			"componentType":5126,
			"count":65577,
			"max":[
				0.7456640005111694,
				0.9451370239257812,
				0.2729089856147766
			],
			"min":[
				-0.668071985244751,
				-0.9519500136375427,
				-0.31828200817108154
			],
			"type":"VEC3"
		},
		{
			"bufferView":57,
			"componentType":5126,
			"count":65577,
			"type":"VEC3"
		},
		{
			"bufferView":58,
			"componentType":5126,
			"count":65577,
			"type":"VEC2"
		},
		{
			"bufferView":59,
			"componentType":5126,
			"count":65577,
			"type":"VEC2"
		},
		{
			"bufferView":60,
			"componentType":5126,
			"count":65577,
			"type":"VEC2"
		},
		{
			"bufferView":61,
			"componentType":5126,
			"count":65577,
			"type":"VEC2"
		},
		{
			"bufferView":62,
			"componentType":5125,
			"count":337350,
			"type":"SCALAR"
		},
		{
			"bufferView":63,
			"componentType":5126,
			"count":65589,
			"max":[
				0.7103250026702881,
				0.9482420086860657,
				0.21091000735759735
			],
			"min":[
				-0.6767079830169678,
				-0.946308970451355,
				-0.33168500661849976
			],
			"type":"VEC3"
		},
		{
			"bufferView":64,
			"componentType":5126,
			"count":65589,
			"type":"VEC3"
		},
		{
			"bufferView":65,
			"componentType":5126,
			"count":65589,
			"type":"VEC2"
		},
		{
			"bufferView":66,
			"componentType":5126,
			"count":65589,
			"type":"VEC2"
		},
		{
			"bufferView":67,
			"componentType":5126,
			"count":65589,
			"type":"VEC2"
		},
		{
			"bufferView":68,
			"componentType":5126,
			"count":65589,
			"type":"VEC2"
		},
		{
			"bufferView":69,
			"componentType":5125,
			"count":334719,
			"type":"SCALAR"
		},
		{
			"bufferView":70,
			"componentType":5126,
			"count":65634,
			"max":[
				0.6797099709510803,
				0.951865017414093,
				0.32542601227760315
			],
			"min":[
				-0.6816449761390686,
				-0.9519919753074646,
				-0.2661980092525482
			],
			"type":"VEC3"
		},
		{
			"bufferView":71,
			"componentType":5126,
			"count":65634,
			"type":"VEC3"
		},
		{
			"bufferView":72,
			"componentType":5126,
			"count":65634,
			"type":"VEC2"
		},
		{
			"bufferView":73,
			"componentType":5126,
			"count":65634,
			"type":"VEC2"
		},
		{
			"bufferView":74,
			"componentType":5126,
			"count":65634,
			"type":"VEC2"
		},
		{
			"bufferView":75,
			"componentType":5126,
			"count":65634,
			"type":"VEC2"
		},
		{
			"bufferView":76,
			"componentType":5125,
			"count":326850,
			"type":"SCALAR"
		}
	],
	"bufferViews":[
		{
			"buffer":0,
			"byteLength":787572,
			"byteOffset":0,
			"target":34962
		},
		{
			"buffer":0,
			"byteLength":787572,
			"byteOffset":787572,
			"target":34962
		},
		{
			"buffer":0,
			"byteLength":525048,
			"byteOffset":1575144,
			"target":34962
		},
		{
			"buffer":0,
			"byteLength":525048,
			"byteOffset":2100192,
			"target":34962
		},
		{
			"buffer":0,
			"byteLength":525048,
			"byteOffset":2625240,
			"target":34962
		},
		{
			"buffer":0,
			"byteLength":525048,
			"byteOffset":3150288,
			"target":34962
		},
		{
			"buffer":0,
			"byteLength":1280352,
			"byteOffset":3675336,
			"target":34963
		},
		{
			"buffer":0,
			"byteLength":788136,
			"byteOffset":4955688,
			"target":34962
		},
		{
			"buffer":0,
			"byteLength":788136,
			"byteOffset":5743824,
			"target":34962
		},
		{
			"buffer":0,
			"byteLength":525424,
			"byteOffset":6531960,
			"target":34962
		},
		{
			"buffer":0,
			"byteLength":525424,
			"byteOffset":7057384,
			"target":34962
		},
		{
			"buffer":0,
			"byteLength":525424,
			"byteOffset":7582808,
			"target":34962
		},
		{
			"buffer":0,
			"byteLength":525424,
			"byteOffset":8108232,
			"target":34962
		},
		{
			"buffer":0,
			"byteLength":1172220,
			"byteOffset":8633656,
			"target":34963
		},
		{
			"buffer":0,
			"byteLength":788844,
			"byteOffset":9805876,
			"target":34962
		},
		{
			"buffer":0,
			"byteLength":788844,
			"byteOffset":10594720,
			"target":34962
		},
		{
			"buffer":0,
			"byteLength":525896,
			"byteOffset":11383564,
			"target":34962
		},
		{
			"buffer":0,
			"byteLength":525896,
			"byteOffset":11909460,
			"target":34962
		},
		{
			"buffer":0,
			"byteLength":525896,
			"byteOffset":12435356,
			"target":34962
		},
		{
			"buffer":0,
			"byteLength":525896,
			"byteOffset":12961252,
			"target":34962
		},
		{
			"buffer":0,
			"byteLength":1092504,
			"byteOffset":13487148,
			"target":34963
		},
		{
			"buffer":0,
			"byteLength":788112,
			"byteOffset":14579652,
			"target":34962
		},
		{
			"buffer":0,
			"byteLength":788112,
			"byteOffset":15367764,
			"target":34962
		},
		{
			"buffer":0,
			"byteLength":525408,
			"byteOffset":16155876,
			"target":34962
		},
		{
			"buffer":0,
			"byteLength":525408,
			"byteOffset":16681284,
			"target":34962
		},
		{
			"buffer":0,
			"byteLength":525408,
			"byteOffset":17206692,
			"target":34962
		},
		{
			"buffer":0,
			"byteLength":525408,
			"byteOffset":17732100,
			"target":34962
		},
		{
			"buffer":0,
			"byteLength":1132644,
			"byteOffset":18257508,
			"target":34963
		},
		{
			"buffer":0,
			"byteLength":257952,
			"byteOffset":19390152,
			"target":34962
		},
		{
			"buffer":0,
			"byteLength":257952,
			"byteOffset":19648104,
			"target":34962
		},
		{
			"buffer":0,
			"byteLength":171968,
			"byteOffset":19906056,
			"target":34962
		},
		{
			"buffer":0,
			"byteLength":171968,
			"byteOffset":20078024,
			"target":34962
		},
		{
			"buffer":0,
			"byteLength":171968,
			"byteOffset":20249992,
			"target":34962
		},
		{
			"buffer":0,
			"byteLength":171968,
			"byteOffset":20421960,
			"target":34962
		},
		{
			"buffer":0,
			"byteLength":169956,
			"byteOffset":20593928,
			"target":34963
		},
		{
			"buffer":0,
			"byteLength":786984,
			"byteOffset":20763884,
			"target":34962
		},
		{
			"buffer":0,
			"byteLength":786984,
			"byteOffset":21550868,
			"target":34962
		},
		{
			"buffer":0,
			"byteLength":524656,
			"byteOffset":22337852,
			"target":34962
		},
		{
			"buffer":0,
			"byteLength":524656,
			"byteOffset":22862508,
			"target":34962
		},
		{
			"buffer":0,
			"byteLength":524656,
			"byteOffset":23387164,
			"target":34962
		},
		{
			"buffer":0,
			"byteLength":524656,
			"byteOffset":23911820,
			"target":34962
		},
		{
			"buffer":0,
			"byteLength":1356036,
			"byteOffset":24436476,
			"target":34963
		},
		{
			"buffer":0,
			"byteLength":786924,
			"byteOffset":25792512,
			"target":34962
		},
		{
			"buffer":0,
			"byteLength":786924,
			"byteOffset":26579436,
			"target":34962
		},
		{
			"buffer":0,
			"byteLength":524616,
			"byteOffset":27366360,
			"target":34962
		},
		{
			"buffer":0,
			"byteLength":524616,
			"byteOffset":27890976,
			"target":34962
		},
		{
			"buffer":0,
			"byteLength":524616,
			"byteOffset":28415592,
			"target":34962
		},
		{
			"buffer":0,
			"byteLength":524616,
			"byteOffset":28940208,
			"target":34962
		},
		{
			"buffer":0,
			"byteLength":1365492,
			"byteOffset":29464824,
			"target":34963
		},
		{
			"buffer":0,
			"byteLength":787068,
			"byteOffset":30830316,
			"target":34962
		},
		{
			"buffer":0,
			"byteLength":787068,
			"byteOffset":31617384,
			"target":34962
		},
		{
			"buffer":0,
			"byteLength":524712,
			"byteOffset":32404452,
			"target":34962
		},
		{
			"buffer":0,
			"byteLength":524712,
			"byteOffset":32929164,
			"target":34962
		},
		{
			"buffer":0,
			"byteLength":524712,
			"byteOffset":33453876,
			"target":34962
		},
		{
			"buffer":0,
			"byteLength":524712,
			"byteOffset":33978588,
			"target":34962
		},
		{
			"buffer":0,
			"byteLength":1364868,
			"byteOffset":34503300,
			"target":34963
		},
		{
			"buffer":0,
			"byteLength":786924,
			"byteOffset":35868168,
			"target":34962
		},
		{
			"buffer":0,
			"byteLength":786924,
			"byteOffset":36655092,
			"target":34962
		},
		{
			"buffer":0,
			"byteLength":524616,
			"byteOffset":37442016,
			"target":34962
		},
		{
			"buffer":0,
			"byteLength":524616,
			"byteOffset":37966632,
			"target":34962
		},
		{
			"buffer":0,
			"byteLength":524616,
			"byteOffset":38491248,
			"target":34962
		},
		{
			"buffer":0,
			"byteLength":524616,
			"byteOffset":39015864,
			"target":34962
		},
		{
			"buffer":0,
			"byteLength":1349400,
			"byteOffset":39540480,
			"target":34963
		},
		{
			"buffer":0,
			"byteLength":787068,
			"byteOffset":40889880,
			"target":34962
		},
		{
			"buffer":0,
			"byteLength":787068,
			"byteOffset":41676948,
			"target":34962
		},
		{
			"buffer":0,
			"byteLength":524712,
			"byteOffset":42464016,
			"target":34962
		},
		{
			"buffer":0,
			"byteLength":524712,
			"byteOffset":42988728,
			"target":34962
		},
		{
			"buffer":0,
			"byteLength":524712,
			"byteOffset":43513440,
			"target":34962
		},
		{
			"buffer":0,
			"byteLength":524712,
			"byteOffset":44038152,
			"target":34962
		},
		{
			"buffer":0,
			"byteLength":1338876,
			"byteOffset":44562864,
			"target":34963
		},
		{
			"buffer":0,
			"byteLength":787608,
			"byteOffset":45901740,
			"target":34962
		},
		{
			"buffer":0,
			"byteLength":787608,
			"byteOffset":46689348,
			"target":34962
		},
		{
			"buffer":0,
			"byteLength":525072,
			"byteOffset":47476956,
			"target":34962
		},
		{
			"buffer":0,
			"byteLength":525072,
			"byteOffset":48002028,
			"target":34962
		},
		{
			"buffer":0,
			"byteLength":525072,
			"byteOffset":48527100,
			"target":34962
		},
		{
			"buffer":0,
			"byteLength":525072,
			"byteOffset":49052172,
			"target":34962
		},
		{
			"buffer":0,
			"byteLength":1307400,
			"byteOffset":49577244,
			"target":34963
		}
	],
	"samplers":[
		{
			"magFilter":9729,
			"minFilter":9987
		}
	],
	"buffers":[
		{
			"byteLength":50884644,
			"uri":"angel_statue.bin"
		}
	]
}
