{
	"asset":{
		"generator":"Khronos glTF Blender I/O v4.4.56",
		"version":"2.0"
	},
	"scene":0,
	"scenes":[
		{
			"name":"Scene",
			"nodes":[
				7
			]
		}
	],
	"nodes":[
		{
			"mesh":0,
			"name":"Object_4"
		},
		{
			"mesh":1,
			"name":"Object_5"
		},
		{
			"mesh":2,
			"name":"Object_6"
		},
		{
			"mesh":3,
			"name":"Object_7"
		},
		{
			"children":[
				0,
				1,
				2,
				3
			],
			"name":"Cube_0",
			"translation":[
				0,
				0.31460756063461304,
				0
			]
		},
		{
			"children":[
				4
			],
			"name":"GLTF_SceneRootNode",
			"rotation":[
				0.70710688829422,
				0,
				0,
				0.7071066498756409
			]
		},
		{
			"children":[
				5
			],
			"name":"root"
		},
		{
			"children":[
				6
			],
			"name":"Sketchfab_model",
			"rotation":[
				-0.70710688829422,
				0,
				0,
				0.7071066498756409
			]
		}
	],
	"materials":[
		{
			"doubleSided":true,
			"name":"Material.001",
			"normalTexture":{
				"index":0,
				"texCoord":2
			},
			"pbrMetallicRoughness":{
				"baseColorTexture":{
					"index":1
				},
				"metallicRoughnessTexture":{
					"index":2,
					"texCoord":1
				}
			}
		}
	],
	"meshes":[
		{
			"name":"Object_0",
			"primitives":[
				{
					"attributes":{
						"POSITION":0,
						"NORMAL":1,
						"TEXCOORD_0":2,
						"TEXCOORD_1":3,
						"TEXCOORD_2":4,
						"TEXCOORD_3":5
					},
					"indices":6,
					"material":0
				}
			]
		},
		{
			"name":"Object_1",
			"primitives":[
				{
					"attributes":{
						"POSITION":7,
						"NORMAL":8,
						"TEXCOORD_0":9,
						"TEXCOORD_1":10,
						"TEXCOORD_2":11,
						"TEXCOORD_3":12
					},
					"indices":13,
					"material":0
				}
			]
		},
		{
			"name":"Object_2",
			"primitives":[
				{
					"attributes":{
						"POSITION":14,
						"NORMAL":15,
						"TEXCOORD_0":16,
						"TEXCOORD_1":17,
						"TEXCOORD_2":18,
						"TEXCOORD_3":19
					},
					"indices":20,
					"material":0
				}
			]
		},
		{
			"name":"Object_3",
			"primitives":[
				{
					"attributes":{
						"POSITION":21,
						"NORMAL":22,
						"TEXCOORD_0":23,
						"TEXCOORD_1":24,
						"TEXCOORD_2":25,
						"TEXCOORD_3":26
					},
					"indices":27,
					"material":0
				}
			]
		}
	],
	"textures":[
		{
			"sampler":0,
			"source":0
		},
		{
			"sampler":0,
			"source":1
		},
		{
			"sampler":0,
			"source":2
		}
	],
	"images":[
		{
			"mimeType":"image/jpeg",
			"name":"historic_european_brick_building_roebuck_normal",
			"uri":"historic_european_brick_building_roebuck_normal.jpg"
		},
		{
			"mimeType":"image/jpeg",
			"name":"historic_european_brick_building_roebuck_baseColor",
			"uri":"historic_european_brick_building_roebuck_baseColor.jpg"
		},
		{
			"mimeType":"image/png",
			"name":"historic_european_brick_building_roebuck_metallicRoughness",
			"uri":"historic_european_brick_building_roebuck_metallicRoughness.png"
		}
	],
	"accessors":[
		{
			"bufferView":0,
			"componentType":5126,
			"count":79992,
			"max":[
				2.331481456756592,
				6.960063934326172,
				0.19239287078380585
			],
			"min":[
				-2.331481456756592,
				-0.3143116235733032,
				-9.429386138916016
			],
			"type":"VEC3"
		},
		{
			"bufferView":1,
			"componentType":5126,
			"count":79992,
			"type":"VEC3"
		},
		{
			"bufferView":2,
			"componentType":5126,
			"count":79992,
			"type":"VEC2"
		},
		{
			"bufferView":3,
			"componentType":5126,
			"count":79992,
			"type":"VEC2"
		},
		{
			"bufferView":4,
			"componentType":5126,
			"count":79992,
			"type":"VEC2"
		},
		{
			"bufferView":5,
			"componentType":5126,
			"count":79992,
			"type":"VEC2"
		},
		{
			"bufferView":6,
			"componentType":5125,
			"count":135582,
			"type":"SCALAR"
		},
		{
			"bufferView":7,
			"componentType":5126,
			"count":81260,
			"max":[
				2.315577268600464,
				7.122377395629883,
				0.20831286907196045
			],
			"min":[
				-2.331481456756592,
				-0.3143116533756256,
				-5.299571514129639
			],
			"type":"VEC3"
		},
		{
			"bufferView":8,
			"componentType":5126,
			"count":81260,
			"type":"VEC3"
		},
		{
			"bufferView":9,
			"componentType":5126,
			"count":81260,
			"type":"VEC2"
		},
		{
			"bufferView":10,
			"componentType":5126,
			"count":81260,
			"type":"VEC2"
		},
		{
			"bufferView":11,
			"componentType":5126,
			"count":81260,
			"type":"VEC2"
		},
		{
			"bufferView":12,
			"componentType":5126,
			"count":81260,
			"type":"VEC2"
		},
		{
			"bufferView":13,
			"componentType":5125,
			"count":120012,
			"type":"SCALAR"
		},
		{
			"bufferView":14,
			"componentType":5126,
			"count":79439,
			"max":[
				2.331481456756592,
				7.03443717956543,
				0.2083127498626709
			],
			"min":[
				-2.3155770301818848,
				1.948897361755371,
				-5.299571514129639
			],
			"type":"VEC3"
		},
		{
			"bufferView":15,
			"componentType":5126,
			"count":79439,
			"type":"VEC3"
		},
		{
			"bufferView":16,
			"componentType":5126,
			"count":79439,
			"type":"VEC2"
		},
		{
			"bufferView":17,
			"componentType":5126,
			"count":79439,
			"type":"VEC2"
		},
		{
			"bufferView":18,
			"componentType":5126,
			"count":79439,
			"type":"VEC2"
		},
		{
			"bufferView":19,
			"componentType":5126,
			"count":79439,
			"type":"VEC2"
		},
		{
			"bufferView":20,
			"componentType":5125,
			"count":110214,
			"type":"SCALAR"
		},
		{
			"bufferView":21,
			"componentType":5126,
			"count":67938,
			"max":[
				2.2684953212738037,
				7.1846442222595215,
				0.11901877820491791
			],
			"min":[
				-2.2684953212738037,
				-0.31431177258491516,
				-5.299571514129639
			],
			"type":"VEC3"
		},
		{
			"bufferView":22,
			"componentType":5126,
			"count":67938,
			"type":"VEC3"
		},
		{
			"bufferView":23,
			"componentType":5126,
			"count":67938,
			"type":"VEC2"
		},
		{
			"bufferView":24,
			"componentType":5126,
			"count":67938,
			"type":"VEC2"
		},
		{
			"bufferView":25,
			"componentType":5126,
			"count":67938,
			"type":"VEC2"
		},
		{
			"bufferView":26,
			"componentType":5126,
			"count":67938,
			"type":"VEC2"
		},
		{
			"bufferView":27,
			"componentType":5125,
			"count":110025,
			"type":"SCALAR"
		}
	],
	"bufferViews":[
		{
			"buffer":0,
			"byteLength":959904,
			"byteOffset":0,
			"target":34962
		},
		{
			"buffer":0,
			"byteLength":959904,
			"byteOffset":959904,
			"target":34962
		},
		{
			"buffer":0,
			"byteLength":639936,
			"byteOffset":1919808,
			"target":34962
		},
		{
			"buffer":0,
			"byteLength":639936,
			"byteOffset":2559744,
			"target":34962
		},
		{
			"buffer":0,
			"byteLength":639936,
			"byteOffset":3199680,
			"target":34962
		},
		{
			"buffer":0,
			"byteLength":639936,
			"byteOffset":3839616,
			"target":34962
		},
		{
			"buffer":0,
			"byteLength":542328,
			"byteOffset":4479552,
			"target":34963
		},
		{
			"buffer":0,
			"byteLength":975120,
			"byteOffset":5021880,
			"target":34962
		},
		{
			"buffer":0,
			"byteLength":975120,
			"byteOffset":5997000,
			"target":34962
		},
		{
			"buffer":0,
			"byteLength":650080,
			"byteOffset":6972120,
			"target":34962
		},
		{
			"buffer":0,
			"byteLength":650080,
			"byteOffset":7622200,
			"target":34962
		},
		{
			"buffer":0,
			"byteLength":650080,
			"byteOffset":8272280,
			"target":34962
		},
		{
			"buffer":0,
			"byteLength":650080,
			"byteOffset":8922360,
			"target":34962
		},
		{
			"buffer":0,
			"byteLength":480048,
			"byteOffset":9572440,
			"target":34963
		},
		{
			"buffer":0,
			"byteLength":953268,
			"byteOffset":10052488,
			"target":34962
		},
		{
			"buffer":0,
			"byteLength":953268,
			"byteOffset":11005756,
			"target":34962
		},
		{
			"buffer":0,
			"byteLength":635512,
			"byteOffset":11959024,
			"target":34962
		},
		{
			"buffer":0,
			"byteLength":635512,
			"byteOffset":12594536,
			"target":34962
		},
		{
			"buffer":0,
			"byteLength":635512,
			"byteOffset":13230048,
			"target":34962
		},
		{
			"buffer":0,
			"byteLength":635512,
			"byteOffset":13865560,
			"target":34962
		},
		{
			"buffer":0,
			"byteLength":440856,
			"byteOffset":14501072,
			"target":34963
		},
		{
			"buffer":0,
			"byteLength":815256,
			"byteOffset":14941928,
			"target":34962
		},
		{
			"buffer":0,
			"byteLength":815256,
			"byteOffset":15757184,
			"target":34962
		},
		{
			"buffer":0,
			"byteLength":543504,
			"byteOffset":16572440,
			"target":34962
		},
		{
			"buffer":0,
			"byteLength":543504,
			"byteOffset":17115944,
			"target":34962
		},
		{
			"buffer":0,
			"byteLength":543504,
			"byteOffset":17659448,
			"target":34962
		},
		{
			"buffer":0,
			"byteLength":543504,
			"byteOffset":18202952,
			"target":34962
		},
		{
			"buffer":0,
			"byteLength":440100,
			"byteOffset":18746456,
			"target":34963
		}
	],
	"samplers":[
		{
			"magFilter":9729,
			"minFilter":9987
		}
	],
	"buffers":[
		{
			"byteLength":19186556,
			"uri":"historic_european_brick_building_roebuck.bin"
		}
	]
}
