# Blender 4.4.1
# www.blender.org
mtllib rightArm.mtl
o Rarm
v -2.050000 -0.750000 0.000000
v -1.300000 0.000000 0.353553
v -1.550000 0.250000 0.000000
v -1.300000 0.000000 0.353553
v -0.550000 0.750000 0.000000
v -1.550000 0.250000 0.000000
v -2.050000 -0.750000 0.000000
v -1.550000 0.250000 0.000000
v -1.300000 0.000000 -0.353553
v -0.550000 0.750000 0.000000
v -1.300000 0.000000 -0.353553
v -1.550000 0.250000 0.000000
v -2.050000 -0.750000 0.000000
v -1.050000 -0.250000 0.000000
v -1.300000 0.000000 0.353553
v -0.550000 0.750000 0.000000
v -1.300000 0.000000 0.353553
v -1.050000 -0.250000 0.000000
v -2.050000 -0.750000 0.000000
v -1.300000 0.000000 -0.353553
v -1.050000 -0.250000 0.000000
v -0.550000 0.750000 0.000000
v -1.050000 -0.250000 0.000000
v -1.300000 0.000000 -0.353553
vn -0.0000 1.0000 -0.0000
vn -0.6489 0.3244 0.6882
vn -0.3244 0.6489 0.6882
vn -0.6489 0.3244 -0.6882
vn -0.3244 0.6489 -0.6882
vn 0.3244 -0.6489 0.6882
vn 0.6489 -0.3244 0.6882
vn 0.3244 -0.6489 -0.6882
vn 0.6489 -0.3244 -0.6882
vn -0.0000 0.5257 0.8506
vn -0.0000 -0.8944 0.4472
vn -0.2175 -0.7721 -0.5971
vn -0.2969 -0.4970 -0.8154
vn -0.0000 -1.0000 -0.0000
vn -0.0001 -0.2298 0.9732
vn -0.0000 0.4472 0.8944
vn -0.4078 0.8741 0.2641
vn -0.7527 -0.4424 0.4876
vn 0.8715 0.3774 0.3131
vn 0.9246 -0.1865 0.3323
vn 0.1856 -0.8358 0.5168
vn 0.3000 0.4613 0.8350
vn 0.6774 0.4904 0.5483
vn 0.5263 0.7359 0.4261
vn 0.0001 0.2298 -0.9732
vn -0.0000 -0.4472 -0.8944
vn -0.0000 -0.5257 -0.8506
vn -0.0000 0.8944 -0.4472
vn -0.0792 -0.9874 0.1368
vn 0.4907 -0.2027 -0.8474
vn 0.2161 0.7691 0.6015
vn 0.2947 -0.4891 0.8209
vn 0.8862 -0.3364 0.3185
vn 0.9224 0.1986 0.3313
vn -0.0000 0.8944 0.4472
vn -0.0000 -0.5257 0.8506
vn -0.2775 -0.8326 -0.4794
vn -0.3900 -0.6277 -0.6736
vn -0.0000 -0.4472 0.8944
vn -0.0000 0.2298 0.9732
vn -0.2046 0.9351 0.2893
vn -0.5511 0.2984 0.7793
vn 0.4542 0.6173 0.6424
vn 0.3826 0.7489 0.5411
vn -0.0000 0.4472 -0.8944
vn -0.0000 -0.2298 -0.9732
vn -0.0000 -0.8944 -0.4472
vn -0.0000 0.5257 -0.8506
vn 0.1343 -0.9512 -0.2778
vn 0.3734 0.5139 -0.7723
vt 0.018055 0.018055
vt 0.027082 0.051585
vt 0.051585 0.027082
vt 0.018055 0.224396
vt 0.224396 0.018055
vt 0.835681 0.582913
vt 0.728716 0.521157
vt 0.835681 0.459401
vt 0.374585 0.766312
vt 0.486191 0.845228
vt 0.374585 0.884687
vt 0.726655 0.705948
vt 0.726655 0.587573
vt 0.838260 0.627031
vt 0.982699 0.606273
vt 0.875734 0.668029
vt 0.875734 0.544517
vt 0.125094 0.907900
vt 0.018130 0.846144
vt 0.125094 0.784388
vt 0.374585 0.766311
vt 0.486191 0.726853
vt 0.838260 0.745407
vt 0.848652 0.833394
vt 0.955617 0.895150
vt 0.848652 0.956906
vt 0.835681 0.459402
vt 0.027082 0.257926
s 0
usemtl player.003
f 15/1/1 4/1/1 2/1/1
f 21/2/1 18/2/1 14/2/1
f 22/3/1 5/3/1 16/3/1
f 3/4/1 12/4/1 8/4/1
f 9/5/1 24/5/1 20/5/1
s 1
f 1/6/2 2/7/2 3/8/2
f 4/9/3 5/10/3 6/11/3
f 7/12/4 8/13/4 9/14/4
f 10/15/5 11/16/5 12/17/5
f 13/18/6 14/19/6 15/20/6
f 16/10/7 17/21/7 18/22/7
f 19/12/8 20/14/8 21/23/8
f 22/24/9 23/25/9 24/26/9
s 0
f 1/6/10 8/27/11 7/6/1
f 4/7/12 3/8/13 2/7/14
f 10/15/15 6/17/16 5/15/1
f 9/16/17 12/17/18 11/16/1
f 19/12/19 9/14/1 20/14/20
f 10/24/21 24/26/1 11/26/22
f 23/25/23 20/26/1 24/26/24
f 19/18/25 14/19/26 13/18/1
f 16/24/27 23/25/28 22/24/1
f 17/20/29 14/19/14 18/19/30
f 1/6/31 15/7/1 2/7/32
f 16/10/33 4/9/1 17/21/34
f 7/28/1 13/28/1 1/28/1
f 15/1/14 17/1/14 4/1/14
f 21/2/1 23/2/1 18/2/1
f 22/3/1 10/3/1 5/3/1
f 3/4/1 6/4/1 12/4/1
f 9/5/1 11/5/1 24/5/1
f 1/6/35 3/8/1 8/27/36
f 4/7/37 6/8/14 3/8/38
f 10/15/39 12/17/1 6/17/40
f 9/16/41 8/17/1 12/17/42
f 19/12/1 7/12/34 9/14/33
f 10/24/1 22/24/32 24/26/31
f 23/25/1 21/25/43 20/26/44
f 19/18/45 21/19/1 14/19/46
f 16/24/47 18/25/1 23/25/48
f 17/20/14 15/20/49 14/19/50
f 1/6/1 13/6/22 15/7/21
f 16/10/1 5/10/20 4/9/19
f 7/28/1 19/28/1 13/28/1
